<?xml version="1.0" encoding="UTF-8"?><svg id="Layer_2" xmlns="http://www.w3.org/2000/svg" viewBox="0 0 910.61 844.72"><defs><style>.cls-1{fill:#040404;}.cls-2{fill:#fff;stroke:#000;stroke-miterlimit:10;}.cls-3{fill:#d1d0d2;}</style></defs><g id="Layer_2-2"><g id="Layer_1-2"><polygon class="cls-2" points="326.11 391.88 380 374 438 397 445 444.49 397 472 326.11 481 303 463.07 297 418.45 326.11 391.88"/><polygon class="cls-2" points="661.93 374 711 412 711 463.07 661.93 472 605 458 563 434.15 563 398 587 374 661.93 374"/><path class="cls-1" d="M897.08,548.1c-12.46-10.65-21.9-23.7-28.58-39.07-8.45-19.43-14.22-40.15-26.69-57.73-7.42-6.09-15.21-10.41-23.92-2.55-8.59,7.76-6.74,16.27-1.37,25.17,14.26,23.64,18.98,51.95,36.07,74.21,5.46,7.11,11.46,13.81,17.28,20.64,2.62,3.08,8.46,5.88,4.36,10.31-3.66,3.96-8.19-.33-11.22-3.03-7.14-6.34-15.18-9.39-24.66-8.72-13.66,.97-20.67,8.53-17.9,21.8,5.91,28.35,12.69,56.52,33.34,78.85,3.75,4.05,10.88,8.15,7.16,14.98-3.69,6.77-11.45,3.87-17.44,3.67-3.72-.12-7.84-1.87-10.96-4.06-20.31-14.27-40.93-4.96-42.61,20.3-.64,9.58-.91,19.2-.97,28.82,10.74-.08,21.49-.14,32.24-.15,.1-4.23,.79-8.42,2.61-12.48,.51-1.13,4.15-1.31,6.3-1.19,8.24,.45,16.46,1.64,24.69,1.74,15.47,.2,31.63-1.33,37.79-17.97,6.19-16.71,5-33.9-7.4-48.77-6.58-7.9-12.71-16.2-18.48-24.71-2.43-3.59-6.35-8.05-3.26-12.56,2.81-4.11,8.18-2.16,12.2-1.59,16.82,2.38,28.18-4.22,32.51-20.47,4.47-16.79,3.87-32.65-11.09-45.43h0Z"/><path class="cls-1" d="M555.1,698.3c-47.16-.68-92.49,10.14-137.47,22.37-69.59,18.92-140.88,32.12-208.53,57.5-45.28,16.99-91.49,27.79-139.35,32.65-19.24,1.95-34.97-10.54-36.23-30.24-3.42-53.36,16.84-98.84,58.07-129.97,40.8-30.8,82.92-62.07,133.54-76.59,92.52-26.55,185.56-50.36,282.97-49.27,11.55,.13,23.25-2.01,34.65-4.25,9.75-1.92,16.66-7.98,14.8-19.01-1.76-10.48-8.81-15-19.51-14.06-59.62,5.23-119.69,6.64-178.55,18.36-36.79,7.32-73.05,17.25-109.56,26-19.91,6.39-40.2,11.79-59.63,19.38-34.35,13.42-63.14,36.71-94.53,55.43C29.42,646.15-.7,705.67,.01,781.64c.3,31.99,31.34,64.66,59.08,63.02,16.89-1,33.68-3.93,50.5-6.09,2.12-.27,4.65-1.26,6.66-1.11,2.02-.33,4.04-.63,6.08-.9,3.8-.5,4.43-.59,1.9-.27-1.74,.24-1.9,.25-.48,.03,1.25-.25,2.52-.41,3.78-.63,2.52-.43,5.03-.9,7.55-1.32,9.26-1.56,19.31-3.31,28.96-3.17,5.17-1.35,10.32-2.88,15.51-4.67,12.06-4.14,23.96-8.56,35.96-12.87,12.46-4.47,25.35-6.06,38.15-9.14,9.15-2.21,17.93-5.61,27.06-7.42,.02,0,.04-.02,.06-.03,14.84-6.99,29.67-14.03,45.37-18.89,6.6-2.04,13.25-3.94,19.71-6.41,4.28-1.64,8.59-3.31,13.05-4.26,3.05-1.17,6.24-2.02,9.39-2.53,1.44-.23,2.89-.44,4.34-.63,.64-.28,1.29-.55,1.95-.79,7.17-2.52,14.9-3.6,22.25-5.55,7.01-1.85,14.26-3.34,21.37-4.78,13.07-2.65,25.31-8.67,38.59-9.81,.75-.27,1.52-.51,2.31-.69,10.58-2.48,21.34-4.07,31.98-6.3,12.3-2.58,24.82-5.09,37.43-5.15,.75,0,1.48,.03,2.2,.09,1.49-.09,2.99-.16,4.49-.2,.83-.05,1.65-.1,2.48-.12,2.31-.06,4.59,.02,6.88,.14,3.59,.08,7.19,.2,10.76,.29,12.33,.29,22.23-3.82,21.99-17.17-.23-13.07-10.83-15.85-22.22-16.01h0Z"/><path class="cls-3" d="M817.89,448.76c8.7-7.86,16.5-3.54,23.92,2.55,1.31-1.26,2.6-3.58,3.95-3.62,18.84-.54,30.87-10.54,35.58-27.93,5.48-20.21-2.9-37.04-18.93-48.62-24.87-17.97-48.4-38.19-77.11-50.32-6.01,9.13-12.24,18.97-25.27,12.17-13.1-6.83-10.74-17.78-6.57-29.4,16.7-46.63,33.64-93.11,55.3-137.79,13.97-28.81,33.3-53.56,54.1-77.46,2.93-3.36,8.06-7.19,6.1-11.79-2.26-5.3-8.26-2.22-12.69-2.14-43.07,.84-80.02,22.48-119.67,35.03-36.07,11.42-67.84,30.11-96.99,53.83-10.55,8.59-19.06,18.59-24.29,31.15-2.98,7.17-1.06,11.29,7.47,9.68,36.85-6.94,74.56-10.96,105.48-35.88,10.99-8.85,23.4-9.4,34.25,1.44,6.67,6.66,8.08,13.88,2.16,22.33-20.71,29.57-31.74,64.39-50.86,94.86-3.37,5.37-2.23,11.57-2.42,17.55-.34,10.69-5.66,18.06-16.59,18.95-10.73,.87-16.51-5.78-18.32-15.88-1.79-9.98-1.26-19.88,2.05-29.55-5.69-2.17-11.39-4.33-17.08-6.5-7.38,6.59-14.51,13.5-22.25,19.64-4.41,3.5-10.42,6.69-15.76,3.42-17.31-10.59-30.46-.99-43.45,8.34-9.67,6.95-18.41,8.93-27.28-.73-3.5-3.81-7.17-3.2-10.28,.34-4.37,4.98-8.72,10.03-12.55,15.43-5.92,8.35-13.46,12.88-22.92,7.38-10.1-5.88-10.62-15.15-5.5-25.12,1.32-2.57,2.04-5.45,3.04-8.18-6.87-.82-13.74-1.64-20.61-2.47,.89,11.88-.53,23.48-15.16,24.42-14.58,.94-17.08-10.48-18.47-22.23-5.59-47.21-13.2-94.15-14.35-141.89-.85-35.38,5.17-69.5,13.41-103.52,.76-3.15,2.47-6.83-.63-9.38-3.56-2.93-7.01,0-10.1,1.6-42.34,22.03-67.93,61.66-100,94.59-24.93,25.6-41.28,56.02-56.72,87.4-6.07,12.35-7.59,25.4-6.59,38.88,.63,8.52,5.09,11.05,11.82,5.79,29.29-22.89,60.67-43.69,76.72-79.59,4.65-10.41,12.69-17.72,25.91-16.39,13,1.31,18.4,8.31,16.88,20.76-4.41,36.16,1.31,72.44-1.38,108.63-.25,3.3,1.63,7.21,3.57,10.13,6.91,10.4,8.15,20.63-3.5,27.57-12.12,7.23-19.83-.86-25.92-10.69-.86-1.4-1.66-2.83-2.49-4.25-13.66,11.15-27.69,22.01-33.12,39.98,21.58-.66,43.2-2.31,64.75-1.72,22.41,.62,53.48,35.3,56.11,60.59,3.5,33.66-7.37,49.8-40.55,59.58-32,9.43-64.48,15.27-98.05,16.07-19.51,.46-33.26-6.73-43.49-22.48-18.63,15.14-28.87,34.96-32.59,58.43,36.5-8.76,72.77-18.68,109.56-26,58.86-11.71,118.94-13.13,178.55-18.36,10.7-.94,17.75,3.58,19.51,14.06,1.85,11.04-5.05,17.1-14.8,19.01-11.4,2.24-23.11,4.37-34.65,4.25-97.41-1.08-190.45,22.72-282.97,49.27-50.62,14.53-92.74,45.79-133.54,76.59-41.23,31.13-61.49,76.61-58.07,129.97,1.26,19.7,16.99,32.19,36.23,30.24,47.86-4.85,94.06-15.66,139.35-32.65,67.66-25.38,138.94-38.58,208.53-57.5,44.98-12.23,90.31-23.05,137.47-22.37,11.39,.16,21.99,2.94,22.22,16.01,.24,13.36-9.66,17.46-21.99,17.17-3.57-.08-7.17-.21-10.76-.29,2.93,.16,5.85,.4,8.8,.55,5.29,.27,10.6-.16,15.89-.21,4.37-.04,8.38,1.07,11.85,3.02,9.44-.06,18.88-.14,28.31-.25,59.85-.71,119.69-2.13,179.54-2.6,.06-9.62,.33-19.24,.97-28.82,1.69-25.25,22.31-34.56,42.61-20.3,3.12,2.19,7.24,3.94,10.96,4.06,5.99,.19,13.74,3.1,17.44-3.67,3.73-6.84-3.41-10.93-7.16-14.98-20.65-22.32-27.43-50.5-33.34-78.85-2.77-13.27,4.25-20.83,17.9-21.8,9.49-.67,17.52,2.38,24.66,8.72,3.03,2.7,7.56,6.98,11.22,3.03,4.1-4.43-1.74-7.24-4.36-10.31-5.82-6.83-11.82-13.53-17.28-20.64-17.09-22.25-21.81-50.57-36.07-74.21-5.37-8.9-7.22-17.41,1.37-25.17l-.02,.04h0Zm-88.39,3.15c-3.62,19.61-18.8,30.81-39.15,32.71-8.9,.83-17.95,.14-31.55,.14-31.17,7.52-61.12-11.65-91.73-23.62-32.27-12.63-30.92-68.78,.13-93.57,26.68-21.31,79.07-23.1,109.66-3.27,14.5,9.39,28.77,19.21,42.53,29.65,20.9,15.87,13.74,38.33,10.12,57.98v-.02h-.01Z"/><path class="cls-1" d="M785.29,320.81c-6.01,9.13-12.24,18.97-25.27,12.17-13.1-6.83-10.74-17.78-6.57-29.4,16.7-46.63,33.64-93.11,55.3-137.79,13.97-28.81,33.3-53.56,54.1-77.46,2.93-3.36,8.06-7.19,6.1-11.79-2.26-5.3-8.26-2.22-12.69-2.14-43.07,.84-80.02,22.48-119.67,35.03-36.07,11.42-67.84,30.11-96.99,53.83-10.55,8.59-19.06,18.59-24.29,31.15-2.98,7.17-1.06,11.29,7.47,9.68,36.85-6.94,74.56-10.96,105.48-35.88,10.99-8.85,23.4-9.4,34.25,1.44,6.67,6.66,8.08,13.88,2.16,22.33-20.71,29.57-31.74,64.39-50.86,94.86-3.37,5.37-2.23,11.57-2.42,17.55-.34,10.69-5.66,18.06-16.59,18.95-10.73,.87-16.51-5.78-18.32-15.88-1.79-9.98-1.26-19.88,2.05-29.55,8.33-15.14,16.69-30.26,24.96-45.43,1.55-2.85,4.19-6.11,1.82-9.2-2.44-3.2-5.44,.3-8.02,.95-29.01,7.36-58.23,13.52-88.13,15.89-18.17,1.44-28.13-8.29-29.99-26.19-3.83-37,17.25-60.24,42.82-81.59,50.05-41.79,111.33-59.6,171.11-80.68,24.62-8.68,49.49-14.3,76.07-12.75,33.91,1.97,49.27,27.8,30.98,56.46-11.57,18.13-27.17,33.67-38.92,51.7-27.52,42.23-47.05,88.37-62.95,136.09-4.19,12.59-8.66,25.1-13,37.64h.01Z"/><path class="cls-1" d="M483.88,289.47c.89,11.88-.53,23.48-15.16,24.42-14.58,.94-17.08-10.48-18.47-22.23-5.59-47.21-13.2-94.15-14.35-141.89-.85-35.38,5.17-69.5,13.41-103.52,.76-3.15,2.47-6.83-.63-9.38-3.56-2.93-7.01,0-10.1,1.61-42.34,22.03-67.93,61.66-100,94.59-24.93,25.6-41.28,56.02-56.72,87.4-6.07,12.35-7.59,25.4-6.59,38.88,.63,8.52,5.09,11.05,11.82,5.79,29.29-22.89,60.67-43.69,76.72-79.59,4.65-10.41,12.69-17.72,25.91-16.39,13,1.31,18.4,8.31,16.88,20.76-4.41,36.16,1.31,72.44-1.38,108.63-.25,3.3,1.63,7.21,3.57,10.13,6.91,10.4,8.15,20.63-3.5,27.57-12.12,7.23-19.83-.86-25.92-10.69-.86-1.4-1.66-2.83-2.49-4.25-9.77-19.59-3.26-40.31-4.14-60.51-.14-3.29,.64-6.6,.74-9.91,.09-3.23,.99-7.26-2.8-8.79-3.71-1.5-6.08,1.91-8.38,4.16-18.13,17.75-37.75,33.62-58.77,47.85-11.82,8-24.77,17.42-38.43,9.49-14.91-8.65-21.26-25.08-23.21-42.12-4.27-37.3,13.75-68.32,31.89-97.8,32.81-53.3,76.96-97.54,122.8-139.56C410.59,11.29,429.07,1.53,449.29,.09c19.56-1.39,33.76,13.43,34.23,33.19,.57,23.97-9.23,46.11-11.71,69.65-5.62,53.53,.67,106.22,8.38,158.94,1.34,9.19,2.47,18.4,3.7,27.61h-.01Z"/><path class="cls-1" d="M343.78,361.31c21.58-.66,43.2-2.31,64.75-1.72,22.41,.62,53.48,35.3,56.11,60.59,3.5,33.66-7.37,49.8-40.55,59.58-32,9.43-64.48,15.27-98.05,16.07-19.51,.46-33.26-6.73-43.49-22.48-12.62-64.63-3.8-77.29,61.24-112.04h-.01Zm34.66,32.12c-25.45-6.49-43.81,8.57-61.17,24.33-11.46,10.41-6.43,24.97-4.9,37.8,.9,7.51,8.95,7.61,14.62,7.48,30.73-.7,60.96-5.67,89.93-15.69,18.48-6.39,20.62-25.74,6.72-40.06-12.44-12.81-27.13-17-45.19-13.87h-.01Z"/><path class="cls-1" d="M661.44,271.43c-7.38,6.59-14.51,13.5-22.25,19.64-4.41,3.5-10.42,6.69-15.76,3.42-17.31-10.59-30.46-.99-43.45,8.34-9.67,6.95-18.41,8.93-27.28-.73-3.5-3.81-7.17-3.2-10.28,.34-4.37,4.98-8.72,10.03-12.55,15.43-5.92,8.35-13.46,12.88-22.92,7.38-10.1-5.88-10.62-15.15-5.5-25.12,1.32-2.57,2.04-5.45,3.04-8.18,13.25-12.38,26.2-25.11,39.88-37,6.67-5.79,14.24-11,22.23-14.7,10.05-4.66,19.24-.73,22.48,9.49,2.79,8.83,7.03,8.75,13.91,6.77,11.44-3.3,23.02-6.11,34.44-9.47,8.03-2.37,16.01-3.46,22.33,3.01,6.13,6.28,4.72,13.96,1.69,21.39h0Z"/><path class="cls-1" d="M658.8,484.75c-31.17,7.52-61.12-11.65-91.73-23.62-32.27-12.63-30.92-68.78,.13-93.57,26.68-21.31,79.07-23.1,109.66-3.27,14.5,9.39,28.77,19.21,42.53,29.65,20.9,15.87,13.74,38.33,10.12,57.98-3.62,19.61-18.8,30.81-39.15,32.71-8.9,.83-17.95,.14-31.55,.14v-.02h-.01Zm-.73-32.64c10.2,0,17.2-.21,24.19,.06,6.97,.27,12.74-1.65,15.51-8.4,3.1-7.57,5.32-17.99-.31-22.66-20.87-17.32-40.09-38.95-71.07-37.4-19.43,.97-39.74,.58-47.26,24.3-2.65,8.35-7.08,19.75,4.1,23.54,25.45,8.63,48.87,25.93,74.84,20.57h0Z"/><path class="cls-1" d="M358.18,431.46c-.06,9.95-3.83,15.49-11.32,17.68-6.94,2.03-13.24,.15-17.52-6.06-4.49-6.52-4.41-13.45,.95-19.14,2.72-2.89,7.84-6.23,10.85-5.45,3.85,1-2.73,3.46-1.7,6.68,.85,2.67,1.29,5.61,4.14,5.98,2.27,.3,4.82-.97,7.15-1.81,2.56-.93-.17-6.8,3.3-5.31,2.48,1.06,3.36,5.87,4.15,7.43Z"/><path class="cls-1" d="M678.27,422.15c-1,10.69-6.78,16.9-16.68,16.66-10.33-.25-16.67-6.68-15.95-17.52,.68-10.28,7.38-15.06,17.32-15.25,1.76-.03,3.56,1.45,5.34,2.23-1.38,.49-2.8,.87-4.12,1.49-3.36,1.58-4.89,4.29-4.61,8.01,.25,3.38,2.24,5.42,5.2,6.61,3.64,1.47,6.42-.08,8.75-2.77,1.19-1.38,2.21-2.92,3.31-4.39,.52,1.78,1.04,3.56,1.44,4.91v.02h0Z"/></g></g></svg>