<?xml version="1.0" encoding="UTF-8"?><svg id="Layer_1" xmlns="http://www.w3.org/2000/svg" viewBox="0 0 2880 2880"><defs><style>.cls-1{fill:#fff;}.cls-2{fill:#040404;}.cls-3{fill:#d1d0d2;}.cls-4{fill:#91dafc;}</style></defs><path class="cls-2" d="M1709.93,1713.84c-49.25,30.64-86.31,75.44-130.14,112.38-8.69,7.33-3.96,16.67,1.02,24.4,22.41,34.85,39.84,71.45,41.43,113.84,1.85,49.48,6.09,99.13-8.98,147.56-4.5,14.45,2.19,26.65,9.83,36.77,7.42,9.83,10.43,19.27,7.61,30.41-2.13,8.41,1.29,10.6,8.55,11.72,25.73,3.97,50.84-3.9,76.53-3.65,25.25,.25,45.83,8.81,67.34,20.6,36.31,19.9,32.52,98.66-5.39,118.33-34.94,18.12-70.92,21.47-108.42,19.56-50.02-2.55-99.22-5.01-145.95-29.69-40.36-21.31-45.27-22.23-45.41-69.26-.12-37.88,8.63-74.92,10.37-112.63,.17-3.78,1.47-8.74,4.09-10.97,17.4-14.74,18.03-34.82,17.66-54.83-.76-41.87,4.08-84.05-4.34-125.5-5.03-24.78-15.04-48.02-25.89-71.02-10.68-22.62-30.46-15.87-47.45-17.41-40.65-3.7-81.85-3.59-120.71-18.46-11.46-4.38-22.51-9.87-33.6-15.17-25.04-11.98-43.09-8.97-56.42,15.71-35.16,65.07-73.06,129.51-82.93,204.7-3.54,26.97-5.96,54.25-7.7,81.37-.65,10.1,9.9,20.99,15.58,31.39,7.96,14.57,6.39,28.72-1.99,42.3-9.03,14.64-2.05,31.25-6.55,46.61-5.74,19.57-4.35,40.58-14.68,59.59-13.2,24.29-35.75,27.4-58.94,30.93-37.2,5.66-74.53,9.08-112.25,8.85-46.19-.28-85.98-12.96-115.57-51.26-15.65-20.26-13.31-58.49,4.67-76.54,26.87-26.97,59.88-34.91,96.02-37.18,15.45-.97,30.72-4.99,46.03-7.85,5.15-.96,6.01-5.36,6.99-9.79,2.91-13.11,7.86-24.8,22.16-29.5,3.44-1.13,5.34-3.68,5.25-7.6-1.37-56.43,11.94-110.22,24.41-164.93,14.65-64.3,37.25-123.79,73.03-178.64,8.17-12.53,17.4-24.38,26.14-36.54,2.88-4.01,4.8-8.03,1.1-12.67-36.31-45.57-47.29-100.53-55.76-155.79-14.49-94.6-4.96-187.61,23.46-278.78,2.91-9.33,.01-11.43-8.98-11.87-68.1-3.29-134.31,41.11-147.24,118.64-3.81,22.85-14.24,44.28-16.68,67.65-.45,4.32-.66,7.53,3.01,10.59,16.2,13.48,20.37,31.94,11.94,52.62-1.29,3.16-2.47,5.63-.5,9.24,37.95,69.47-11.09,119.87-70.62,123.03-15.94,.85-32,.44-47.97-.22-23.04-.96-37.13-18.07-33.92-41.08,1.6-11.48,3.46-23.07,6.84-34.11,4.78-15.63,5.55-29.41-3.87-44.48-9.46-15.12-3.57-47.51,10.87-54.24,27.11-12.64,26.29-36.91,29.12-59.51,4-31.95,3.94-64.39,15.2-95.27,5-13.72,11.86-26.31,21.35-36.89,20.85-23.25,37.71-50.03,62.14-70.13,2.51-2.06,5.53-6.84,4.7-8.9-1.6-3.98-6.21-1.53-9.71-1.09-16.82,2.16-33.6,5.09-50.5,6.09-27.73,1.64-58.78-31.03-59.08-63.02-.72-75.97,29.41-135.49,95.77-175.06,31.38-18.72,60.17-42.01,94.53-55.43,19.44-7.59,39.73-12.99,59.63-19.38,36.5-8.76,72.77-18.68,109.56-26,58.86-11.71,118.94-13.13,178.55-18.36,10.7-.94,17.75,3.58,19.51,14.06,1.85,11.04-5.05,17.1-14.8,19.01-11.4,2.24-23.11,4.37-34.65,4.25-97.41-1.08-190.45,22.72-282.97,49.27-50.62,14.53-92.74,45.79-133.54,76.59-41.23,31.13-61.49,76.61-58.07,129.97,1.26,19.7,16.99,32.19,36.23,30.24,47.86-4.85,94.06-15.66,139.35-32.65,67.66-25.38,138.94-38.58,208.53-57.5,44.98-12.23,90.31-23.05,137.47-22.37,11.39,.16,21.99,2.94,22.22,16.01,.24,13.36-9.66,17.46-21.99,17.17-10.64-.25-21.47-.91-31.93,.61-59.39,8.64-116.52,27.25-174.85,40.57-4.98,1.14-7.6,2.87-5.37,8.95,5.96,16.32-.66,25.53-18.42,25.76-20.32,.26-40.66-.37-60.98,.15-36.22,.92-68.37,13-95.85,36.84-30.51,26.47-57.9,55.85-83.32,87.25-14.59,18.02-25.13,37.29-29.26,60.26-5.42,30.15-3.55,61.15-11.14,91.06-1.17,4.61-7.96,14.48,1.24,14.16,10.65-.36,28.78,5.92,31.66-9.66,5.1-27.64,15.26-53.83,20.4-81.2,8.5-45.22,32.56-80.01,69.19-105.83,35.54-25.06,76.54-33.09,119.53-30.49,12.59,.76,18.59-2.52,18.17-16.19-.3-9.91,5.8-16.34,16.23-16.43,10.6-.09,15.11,6.65,16.52,16.42,1.29,8.93-2.09,17.07-3.68,25.51-3.62,7.8-6.87,15.8-10.93,23.37-7.15,13.34-2.01,16.48,11.34,16.34,71.93-.77,143.79-5.39,215.79-2.99,88.49,2.95,175.39-18.71,263.79-18.06,7.39,.05,8.05-4.85,5.9-10.35-4.45-11.42-9.25-22.7-13.9-34.03-3.9-11.2-13.04-24.06,3.36-31.78,16.45-7.75,21.93,6.49,27.86,17.64,2.61,4.9,6.9,4.54,11.2,4.55,22.32,.04,44.65,.39,66.96-.09,18.41-.39,33.57,6.27,47.1,18.25,56.5,50.03,103.34,107.33,133.14,177.33,8.2,19.26,17.32,38.87,16.29,60.25-1.01,21.02,5.97,26.46,26.93,23.26,34.01-5.19,37.47-8.53,28.96-43.3-.24-.97-.58-1.91-.9-2.86-19.5-59.44-50.01-113-87.64-162.63-39.62-52.25-86.52-95.8-148.82-119.87-35.25-13.62-72.23-9.14-108.73-8.8-14.05,.13-31.69-12.44-31.93-24.63-.38-19.3-.59-38.68,.7-57.93,1.69-25.25,22.31-34.56,42.61-20.3,3.12,2.19,7.24,3.94,10.96,4.06,5.99,.19,13.74,3.1,17.44-3.67,3.73-6.84-3.41-10.93-7.16-14.98-20.65-22.32-27.43-50.5-33.34-78.85-2.77-13.27,4.25-20.83,17.9-21.8,9.49-.67,17.52,2.38,24.66,8.72,3.03,2.7,7.56,6.98,11.22,3.03,4.1-4.43-1.74-7.24-4.36-10.31-5.82-6.83-11.82-13.53-17.28-20.64-17.09-22.25-21.81-50.57-36.07-74.21-5.37-8.9-7.22-17.41,1.37-25.17,8.7-7.86,16.5-3.54,23.92,2.55,12.47,17.58,18.24,38.3,26.69,57.73,6.68,15.36,16.12,28.42,28.58,39.07,14.96,12.78,15.57,28.65,11.09,45.43-4.33,16.25-15.69,22.85-32.51,20.47-4.02-.57-9.39-2.52-12.2,1.59-3.09,4.52,.83,8.98,3.26,12.56,5.77,8.51,11.9,16.82,18.48,24.71,12.39,14.88,13.59,32.07,7.4,48.77-6.17,16.64-22.32,18.17-37.79,17.97-8.24-.11-16.45-1.29-24.69-1.74-2.15-.12-5.79,.06-6.3,1.19-4.08,9.14-2.51,18.98-1.18,28.26,.91,6.39,8.03,4.32,12.77,4.26,36.95-.53,73.97-1.87,109.11,12.94,6.37,2.68,8.6-1.75,11.16-6.53,24.79-46.28,44.13-95.29,71.27-140.41,36.4-60.52,103.88-84.69,170.29-60.39,18.16,6.64,35.61,14.67,52.31,24.38,19.41,14.79,34.87,33.35,49.93,52.3,35.57,54.01,44.03,114.83,47.72,177.8,6.63,113.22-14.94,221.11-56.69,325.51-12.11,30.27-27.99,58.98-49.52,83.93-7.06,8.17-.7,16.11-.28,23.65,1.18,21.41-7.13,38.17-22.35,51.07-30.23,25.62-63.03,44.66-105.42,42.38-21.39-1.15-34.82-10.51-45.04-27.45-1.72-2.85-2.79-6.76-6.53-6.73-4,.03-4.34,4.32-5.8,7.21-7.86,15.51-16.8,30.2-30.4,41.59-7.79,6.53-16.06,10.53-25.17,3.82-9.61-7.08-7.16-16.09-1.98-24.86,33.1-30.94,47.97-70.88,56.1-114.09,.34-1.79,.14-4.72-1-5.61-16.17-12.69-13.54-30.53-13.69-47.76-.16-18.36,9.08-27.59,26.94-28.94,3.95-.3,8.35,.39,9.33-5.15,3.43-19.48,4.03-38.61-3.25-57.69-28.67-75.17-75.85-136.79-136.66-188.64-7.11-6.06-12.04-4.77-17.18,2.48-6.35,8.95-11.92,19.34-20.38,25.75-22.97,17.42-25.27,37.83-22.54,65.99,10.54,108.65-13.04,215.36-24.1,322.78-.41,3.99-4.56,8.96,.65,11.66,4.66,2.42,7.59-2.61,10.66-5.47,16.89-15.74,24.83-37.67,38.49-55.67,6.43-8.47,14.28-11.44,23.32-5.81,9.34,5.81,9.58,14.9,4.34,23.63-13.5,22.45-24.98,46.36-45.28,64.01Zm-10-443.87c3.12-1.81,5.91-3.85,5.53-8.06-7.03-9.16-16.91-4.93-24.46-3-6.66,1.7-2.01,9.27-.02,13.62,8.78,19.2,12.99,1.27,18.95-2.56Zm-579.52,127.95c-8.81,70.07-8.64,139.34,4.9,209.5,14.31,74.15,55.37,126.18,118.54,161.27,53.63,29.79,110.58,52.12,174.01,52.07,31.27-.02,63.54,6.3,93.61-1.05,60.4-14.76,99.14-57.64,124.27-112.39,16.58-36.12,10.08-76.94,18.05-114.86,15.47-73.63,17.88-147.88,15.32-222.61-.55-9.92-.77-19.88-1.75-29.75-.74-7.48-4.88-8.8-11-4.56-7.92,5.48-15.3,12.22-23.96,16.07-68.79,30.59-131.46,73.91-203.55,97.61-10.05,3.3-19.69,5.51-29.87,.39-37.29-18.78-77.69-28.79-117.26-41.09-49.6-15.41-101.08-24.77-148.73-46.41-4.19-1.9-7.85-2.97-8.67,3.26-1.42,10.84-2.63,21.7-3.93,32.55Zm1019.66-159.22c-.36-37.49,.4-68.88-4.44-99.94-11.18-71.72-38.64-132.08-109.59-164.91-49.2-22.76-112.09-12.64-142.11,37.58-27.91,46.69-48.1,97.2-73.83,144.94-3.26,6.05,1.5,9.14,5.99,11.73,12.07,6.97,24.91,12.57,35.64,21.86,54.49,47.15,99.14,102.22,132.53,166.06,22.33,42.68,46.68,84.92,45.41,135.63-.19,7.46,5.03,8.27,10.88,8.34,11.49,.14,24.02,.55,30.79,10.8,8.08,12.23,10.62,6.14,13.77-2.28,33.35-89,59.95-179.34,54.95-269.8Zm-454.92,1074.99c23.06,1.13,48.39-.35,71.85-13.35,25.13-13.93,27.96-48.92,5.39-66.34-23.73-18.32-51.22-16.01-77.69-12.54-55.63,7.29-107.59-2.97-157.57-26.88-5.23-2.5-9.8-4.08-11.79,4.37-4.85,20.61-6.19,41.44-4.98,62.45,.74,12.84,5.49,22.61,20.68,22.94,9.07,.19,16.17,5.58,23.51,10.04,10.63,6.46,21.79,12.05,34.2,13.14,31.14,2.74,62.19,7.27,96.41,6.18Zm-741.77-3.21c53.69,.04,92.29-4.55,130.76-10.56,7.92-1.24,14.35-4.62,18.94-11.54,12.42-18.7,10.74-40.74,15-61.39,1.74-8.43-2.31-12.71-9.74-12.55-51.78,1.08-102.18-20.23-155.1-6.99-26.19,6.55-54.22,4.92-75,26.9-10.8,11.43-12.14,27.01-2.73,39.89,23.31,31.93,57.16,35.73,77.87,36.24Zm141.93-183.74c11.49,1.35,12.73,.45,13.14-7.39,4.17-80.37,16.51-158.41,58.1-229.63,18.3-31.33,27.11-68.2,55.53-93.63,4.01-3.59,.56-6.48-2.44-8.87-10.42-8.26-20.97-16.36-31.18-24.87-4.96-4.13-8.24-3.98-12.18,1.46-43.09,59.6-76.31,123.01-90.69,196.57-9.86,50.45-26.82,99.48-25.16,151.79,.2,6.14-3.12,14.42,8,14.54,8.96,.1,17.92,.02,26.88,.02Zm505.04-101.24c-.25-89.54-2.21-93.94-37.72-158.71-8.81-16.08-16.01-22.34-33.57-14.08-7.43,3.49-9.38,5.83-5.59,12.86,39.42,73.23,30.63,152.43,27.11,230.58-1.05,23.41,17.19,15.53,26.59,21.15,9.08,5.43,11.23-4.24,13.37-10.83,9.28-28.57,11.59-57.93,9.82-80.97Zm358.37-339.27c33-1.25,58.36-18.14,79.47-41.56,12.57-13.95-8.98-61.03-28.08-60.84-25.8,.26-51.84,1.77-76.8,10.01-3.16,1.04-5.28,2.62-5.52,6.12-1.2,17.54-3.2,35.06-3.43,52.62-.26,19.85,14.33,33.34,34.35,33.65Zm-1087.5-54.18c41.92,3.82,76.47-13.77,70.3-58.14-1.57-11.32-3.46-18.88-17.6-14.08-7.46,2.53-16.1,1.77-23.37,4.63-20.41,8.04-50.51-2.19-55.04,35.44-3.92,32.57-7.31,32.16,25.71,32.15Zm1122.26-96.45c-24.25-1.94-49.69,6.16-75.51,11.9-4.97,1.1-10.62,.36-9.97,7.82,.63,7.11,6.03,7.22,11.15,6.43,27.83-4.33,55.46-9.86,83.78-10.62,12.19-.33,24.78,1.44,36.52-3.35,5.2-2.12,11.56-5.43,9.58-11.95-1.84-6.08-8.41-3.82-13.1-2.7-13.12,3.12-26.42,2.56-42.45,2.48Zm-1132.55-23.79c-9.34,.6-17.83,.13-18.7,10.92-.5,6.22-1.29,14.47,7.4,14.93,26.47,1.4,51.82-5.26,76.72-13.39,4-1.31,7.05-5.46,5.82-10.46-1.3-5.31-6.07-3.89-9.85-4.49-21.2-3.34-41.67,9.98-61.38,2.5Zm215.07,647.07c-12.21,.71-24.17,1.2-36.08,2.21-4.18,.35-7.6,2.77-8.06,7.54-.38,3.97,1.88,6.7,5.55,7.05,26.11,2.45,52.24,4.71,78.37,6.85,3.54,.29,6.73-1.64,8.06-4.92,1.53-3.78-2.96-4.52-4.36-6.85-10.92-18.19-29.3-7.01-43.48-11.89Zm516.11,22.87c4.53-.91,11.85,.58,13.85-6.84,2.07-7.71-5.75-7.35-9.83-9.97-1.66-1.06-3.23-2.31-4.71-3.63-15.4-13.79-35.18-15.41-54.09-19.29-3.33-.68-6.54,1.08-7.87,4.75-1.15,3.18-.48,6.73,2.3,7.96,19.82,8.82,36.21,25.2,60.35,27.01Z"/><path class="cls-3" d="M1668.02,831.92c-7.42-6.09-15.21-10.41-23.92-2.55-8.59,7.76-6.74,16.27-1.37,25.17,14.26,23.64,18.98,51.95,36.07,74.21,5.46,7.11,11.46,13.81,17.28,20.64,2.62,3.08,8.46,5.88,4.36,10.31-3.66,3.96-8.19-.33-11.22-3.03-7.14-6.34-15.18-9.39-24.66-8.72-13.66,.97-20.67,8.53-17.9,21.8,5.91,28.35,12.69,56.52,33.34,78.85,3.75,4.05,10.88,8.15,7.16,14.98-3.69,6.77-11.45,3.87-17.44,3.67-3.72-.12-7.84-1.87-10.96-4.06-20.31-14.27-40.93-4.96-42.61,20.3-1.28,19.24-1.08,38.62-.7,57.93,.24,12.2,17.88,24.76,31.93,24.63,36.5-.33,73.48-4.81,108.73,8.8,62.3,24.07,109.2,67.61,148.82,119.87,37.63,49.63,68.14,103.18,87.64,162.63,.31,.95,.66,1.89,.9,2.86,8.51,34.77,5.05,38.11-28.96,43.3-20.96,3.2-27.94-2.24-26.93-23.26,1.03-21.38-8.09-40.99-16.29-60.25-29.8-69.99-76.64-127.29-133.14-177.33-13.53-11.98-28.69-18.64-47.1-18.25-22.31,.47-44.64,.12-66.96,.09-4.3,0-8.59,.35-11.2-4.55-5.93-11.15-11.41-25.38-27.86-17.64-16.41,7.73-7.27,20.58-3.36,31.78-84.61,.5-168.96,5.29-252.89,16.21-29.58,3.85-59.83-.07-88.99,7.76-23.92,6.42-48.2,10.98-72.83,7.39-19.06-2.78-38.1-4.73-57.3-5.63,1.59-8.45,4.97-16.58,3.68-25.51-1.41-9.77-5.92-16.51-16.52-16.42-10.43,.09-16.53,6.51-16.23,16.43,.42,13.68-5.58,16.96-18.17,16.19-42.99-2.6-83.99,5.43-119.53,30.49-36.62,25.82-60.69,60.61-69.19,105.83-5.14,27.37-15.3,53.56-20.4,81.2-2.88,15.58-21,9.3-31.66,9.66-9.2,.31-2.42-9.55-1.24-14.16,7.59-29.91,5.72-60.91,11.14-91.06,4.13-22.97,14.67-42.24,29.26-60.26,25.43-31.4,52.81-60.79,83.32-87.25,27.48-23.84,59.63-35.92,95.85-36.84,20.31-.52,40.65,.12,60.98-.15,17.76-.23,24.38-9.43,18.42-25.76-2.22-6.09,.39-7.81,5.37-8.95,58.34-13.32,115.46-31.93,174.85-40.57,10.46-1.52,21.29-.86,31.93-.61,12.33,.29,22.23-3.82,21.99-17.17-.23-13.07-10.83-15.85-22.22-16.01-47.16-.68-92.49,10.14-137.47,22.37-69.59,18.92-140.88,32.12-208.53,57.5-45.28,16.99-91.49,27.79-139.35,32.65-19.24,1.95-34.97-10.54-36.23-30.24-3.42-53.36,16.84-98.84,58.07-129.97,40.8-30.8,82.92-62.06,133.54-76.59,92.52-26.55,185.56-50.36,282.97-49.27,11.55,.13,23.25-2,34.65-4.25,9.75-1.92,16.66-7.98,14.8-19.01-1.76-10.48-8.81-15-19.51-14.06-59.62,5.23-119.69,6.64-178.55,18.36-36.79,7.32-73.05,17.25-109.56,26,3.72-23.46,13.96-43.28,32.59-58.43,10.23,15.76,23.99,22.95,43.49,22.48,33.57-.8,66.05-6.63,98.05-16.07,33.18-9.78,44.05-25.92,40.55-59.58-2.63-25.3-33.7-59.97-56.11-60.59-21.55-.59-43.16,1.06-64.75,1.72,5.43-17.97,19.45-28.82,33.12-39.98,.83,1.42,1.63,2.85,2.49,4.25,6.09,9.83,13.8,17.92,25.92,10.69,11.64-6.95,10.41-17.17,3.5-27.57-1.94-2.93-3.82-6.83-3.57-10.13,2.69-36.19-3.03-72.47,1.38-108.63,1.52-12.46-3.87-19.45-16.88-20.76-13.22-1.33-21.26,5.98-25.91,16.39-16.05,35.9-47.43,56.7-76.72,79.59-6.73,5.26-11.19,2.73-11.82-5.79-1-13.49,.51-26.53,6.59-38.88,15.43-31.39,31.79-61.81,56.72-87.4,32.08-32.94,57.66-72.56,100-94.59,3.09-1.61,6.54-4.53,10.1-1.61,3.1,2.55,1.39,6.23,.63,9.38-8.24,34.02-14.26,68.13-13.41,103.52,1.14,47.74,8.75,94.68,14.35,141.89,1.39,11.76,3.9,23.18,18.47,22.23,14.63-.95,16.05-12.54,15.16-24.42,6.87,.82,13.74,1.64,20.61,2.47-1,2.74-1.72,5.61-3.04,8.18-5.12,9.97-4.6,19.24,5.5,25.12,9.45,5.5,16.99,.98,22.92-7.38,3.83-5.4,8.18-10.45,12.55-15.43,3.11-3.54,6.77-4.15,10.28-.34,8.88,9.66,17.61,7.68,27.28,.73,12.99-9.33,26.14-18.93,43.45-8.34,5.35,3.27,11.35,.08,15.76-3.42,7.74-6.13,14.87-13.05,22.25-19.64,5.69,2.17,11.39,4.33,17.08,6.5-3.31,9.67-3.85,19.57-2.05,29.55,1.82,10.09,7.6,16.75,18.32,15.88,10.93-.89,16.25-8.25,16.59-18.95,.19-5.98-.95-12.19,2.42-17.55,19.12-30.47,30.14-65.28,50.86-94.86,5.92-8.45,4.51-15.66-2.16-22.33-10.85-10.83-23.26-10.29-34.25-1.44-30.93,24.92-68.64,28.94-105.48,35.88-8.53,1.61-10.46-2.51-7.47-9.68,5.23-12.57,13.74-22.57,24.29-31.15,29.15-23.72,60.92-42.41,96.99-53.83,39.65-12.55,76.6-34.19,119.67-35.03,4.44-.09,10.43-3.16,12.69,2.14,1.96,4.6-3.17,8.43-6.1,11.79-20.8,23.91-40.13,48.65-54.1,77.46-21.66,44.67-38.59,91.16-55.3,137.79-4.16,11.62-6.53,22.57,6.57,29.4,13.03,6.79,19.26-3.04,25.27-12.17,28.72,12.13,52.25,32.35,77.11,50.32,16.03,11.58,24.41,28.41,18.93,48.62-4.72,17.39-16.74,27.39-35.58,27.93-1.35,.04-2.63,2.36-3.95,3.62Zm-183,33.44c13.6,0,22.65,.69,31.55-.14,20.35-1.9,35.53-13.09,39.15-32.71,3.62-19.64,10.78-42.11-10.12-57.98-13.75-10.44-28.03-20.26-42.53-29.65-30.6-19.82-82.98-18.04-109.66,3.27-31.04,24.79-32.4,80.95-.13,93.57,30.61,11.98,60.56,31.14,91.73,23.62Z"/><path class="cls-3" d="M1709.93,1713.84c20.3-17.65,31.78-41.57,45.28-64.01,5.25-8.73,5.01-17.82-4.34-23.63-9.04-5.62-16.89-2.65-23.32,5.81-13.66,18-21.6,39.93-38.49,55.67-3.07,2.86-6,7.89-10.66,5.47-5.2-2.7-1.06-7.67-.65-11.66,11.07-107.42,34.65-214.13,24.1-322.78-2.73-28.16-.43-48.57,22.54-65.99,8.45-6.41,14.02-16.8,20.38-25.75,5.14-7.25,10.07-8.54,17.18-2.48,60.81,51.85,107.99,113.46,136.66,188.64,7.28,19.08,6.68,38.21,3.25,57.69-.97,5.54-5.38,4.85-9.33,5.15-17.86,1.35-27.1,10.57-26.94,28.94,.15,17.23-2.48,35.08,13.69,47.76,1.13,.89,1.34,3.81,1,5.61-8.14,43.21-23,83.15-56.1,114.09-12.79,.52-25.59,1.04-38.38,1.56,16.8-25.37,37.17-48.44,49.26-76.85,4.84-11.39,5.56-22.18-7.52-27.72-12.29-5.21-19.24,1.9-24.79,12.9-18.78,37.22-43.29,70.45-72.46,100.23-6.79-2.88-13.58-5.77-20.38-8.65Z"/><path class="cls-2" d="M1611.5,701.42c-6.01,9.13-12.24,18.97-25.27,12.17-13.1-6.83-10.74-17.78-6.57-29.4,16.7-46.63,33.64-93.11,55.3-137.79,13.97-28.81,33.3-53.56,54.1-77.46,2.93-3.36,8.06-7.19,6.1-11.79-2.26-5.3-8.26-2.22-12.69-2.14-43.07,.84-80.02,22.48-119.67,35.03-36.07,11.42-67.84,30.11-96.99,53.83-10.55,8.59-19.06,18.59-24.29,31.15-2.98,7.17-1.06,11.29,7.47,9.68,36.85-6.94,74.56-10.96,105.48-35.88,10.99-8.85,23.4-9.4,34.25,1.44,6.67,6.66,8.08,13.88,2.16,22.33-20.71,29.57-31.74,64.39-50.86,94.86-3.37,5.37-2.23,11.57-2.42,17.55-.34,10.69-5.66,18.06-16.59,18.95-10.73,.87-16.51-5.78-18.32-15.88-1.79-9.98-1.26-19.88,2.05-29.55,8.33-15.14,16.69-30.26,24.96-45.43,1.55-2.85,4.19-6.11,1.82-9.2-2.44-3.2-5.44,.3-8.02,.95-29.01,7.36-58.23,13.52-88.13,15.89-18.17,1.44-28.13-8.29-29.99-26.19-3.83-37,17.25-60.24,42.82-81.59,50.05-41.79,111.33-59.6,171.11-80.68,24.62-8.68,49.49-14.3,76.07-12.75,33.91,1.97,49.27,27.8,30.98,56.46-11.57,18.13-27.17,33.67-38.92,51.7-27.52,42.23-47.05,88.37-62.95,136.09-4.19,12.59-8.66,25.1-13,37.64Z"/><path class="cls-2" d="M1310.1,670.08c.89,11.88-.53,23.48-15.16,24.42-14.58,.94-17.08-10.48-18.47-22.23-5.59-47.21-13.2-94.15-14.35-141.89-.85-35.38,5.17-69.5,13.41-103.52,.76-3.15,2.47-6.83-.63-9.38-3.56-2.93-7.01,0-10.1,1.61-42.34,22.03-67.93,61.66-100,94.59-24.93,25.6-41.28,56.02-56.72,87.4-6.07,12.35-7.59,25.4-6.59,38.88,.63,8.52,5.09,11.05,11.82,5.79,29.29-22.89,60.67-43.69,76.72-79.59,4.65-10.41,12.69-17.72,25.91-16.39,13,1.31,18.4,8.31,16.88,20.76-4.41,36.16,1.31,72.44-1.38,108.63-.25,3.3,1.63,7.21,3.57,10.13,6.91,10.4,8.15,20.63-3.5,27.57-12.12,7.23-19.83-.86-25.92-10.69-.86-1.4-1.66-2.83-2.49-4.25-9.77-19.59-3.26-40.31-4.14-60.51-.14-3.29,.64-6.6,.74-9.91,.09-3.23,.99-7.26-2.8-8.79-3.71-1.5-6.08,1.91-8.38,4.16-18.13,17.75-37.75,33.62-58.77,47.85-11.82,8-24.77,17.42-38.43,9.49-14.91-8.65-21.26-25.08-23.21-42.12-4.27-37.3,13.75-68.32,31.89-97.8,32.81-53.3,76.96-97.54,122.8-139.56,14-12.84,32.49-22.6,52.7-24.04,19.56-1.39,33.76,13.43,34.23,33.19,.57,23.97-9.23,46.11-11.71,69.65-5.62,53.53,.67,106.22,8.38,158.94,1.34,9.19,2.47,18.4,3.7,27.61Z"/><path class="cls-2" d="M1169.99,741.92c21.58-.66,43.2-2.31,64.75-1.72,22.41,.62,53.48,35.3,56.11,60.59,3.5,33.66-7.37,49.8-40.55,59.58-32,9.43-64.48,15.27-98.05,16.07-19.51,.46-33.26-6.73-43.49-22.48-12.62-64.63-3.8-77.29,61.24-112.04Zm34.66,32.12c-25.45-6.49-43.81,8.57-61.17,24.33-11.46,10.41-6.43,24.97-4.9,37.8,.9,7.51,8.95,7.61,14.62,7.48,30.73-.7,60.96-5.67,89.93-15.69,18.48-6.39,20.62-25.74,6.72-40.06-12.44-12.81-27.13-17-45.19-13.87Z"/><path class="cls-2" d="M1487.66,652.04c-7.38,6.59-14.51,13.5-22.25,19.64-4.41,3.5-10.42,6.69-15.76,3.42-17.31-10.59-30.46-.99-43.45,8.34-9.67,6.95-18.41,8.93-27.28-.73-3.5-3.81-7.17-3.2-10.28,.34-4.37,4.98-8.72,10.03-12.55,15.43-5.92,8.35-13.46,12.88-22.92,7.38-10.1-5.88-10.62-15.15-5.5-25.12,1.32-2.57,2.04-5.45,3.04-8.18,13.25-12.38,26.2-25.11,39.88-37,6.67-5.79,14.24-11,22.23-14.7,10.05-4.66,19.24-.73,22.48,9.49,2.79,8.83,7.03,8.75,13.91,6.77,11.44-3.3,23.02-6.11,34.44-9.47,8.03-2.37,16.01-3.46,22.33,3.01,6.13,6.28,4.72,13.96,1.69,21.39Z"/><path class="cls-2" d="M1730.31,1722.48c29.17-29.78,53.68-63.01,72.46-100.23,5.55-11,12.51-18.11,24.79-12.9,13.08,5.54,12.36,16.33,7.52,27.72-12.09,28.41-32.46,51.48-49.26,76.85-6.99,8-13.82,16.14-21.01,23.94-6.8,7.39-14.48,13.33-25.35,8.48-10.82-4.83-10.54-14.2-9.15-23.86Z"/><path class="cls-3" d="M2125.68,1014.45c-15.06-18.95-30.52-37.51-49.93-52.3,25.75,5.24,48.24,28.79,49.93,52.3Z"/><path class="cls-3" d="M1669.12,1369.86c2.55,74.73,.14,148.98-15.32,222.61-7.97,37.92-1.47,78.73-18.05,114.86-25.13,54.75-63.87,97.63-124.27,112.39-30.07,7.35-62.34,1.02-93.61,1.05-63.43,.04-120.38-22.28-174.01-52.07-63.18-35.09-104.23-87.12-118.54-161.27-13.54-70.16-13.71-139.43-4.9-209.5,31.91,15.08,65.28,26.04,99.18,35.61,14.36,4.05,29.84,6.23,42.69,13.18,30.22,16.36,61.76,28.6,94,40.33,43.78,15.92,83.32,10.29,121.64-13.33,16.13-9.94,32.3-19.58,49.24-28.19,34.39-17.47,72.81-25.92,105.35-47.14,12.91-8.42,24.44-18.95,36.6-28.51Z"/><path class="cls-3" d="M2140.08,1238.7c5,90.46-21.6,180.81-54.95,269.8-3.16,8.42-5.69,14.51-13.77,2.28-6.77-10.25-19.3-10.65-30.79-10.8-5.85-.07-11.07-.88-10.88-8.34,1.26-50.71-23.09-92.95-45.41-135.63-33.4-63.84-78.04-118.92-132.53-166.06-10.73-9.29-23.57-14.89-35.64-21.86-4.49-2.59-9.25-5.68-5.99-11.73,25.73-47.74,45.92-98.25,73.83-144.94,30.02-50.22,92.92-60.34,142.11-37.58,70.95,32.83,98.41,93.18,109.59,164.91,4.84,31.06,4.08,62.45,4.44,99.94Z"/><path class="cls-1" d="M1669.12,1369.86c-12.16,9.57-23.69,20.1-36.6,28.51-32.54,21.21-70.96,29.66-105.35,47.14-16.95,8.61-33.12,18.25-49.24,28.19-38.32,23.62-77.86,29.25-121.64,13.33-32.25-11.72-63.78-23.97-94-40.33-12.85-6.95-28.32-9.13-42.69-13.18-33.89-9.57-67.27-20.53-99.18-35.61,1.3-10.85,2.52-21.71,3.93-32.55,.81-6.23,4.48-5.16,8.67-3.26,47.65,21.64,99.13,31,148.73,46.41,39.57,12.3,79.97,22.31,117.26,41.09,10.18,5.12,19.81,2.92,29.87-.39,72.09-23.7,134.76-67.02,203.55-97.61,8.66-3.85,16.04-10.59,23.96-16.07,6.12-4.23,10.26-2.92,11,4.56,.98,9.88,1.2,19.83,1.75,29.75Z"/><path class="cls-4" d="M1685.17,2313.69c-34.22,1.09-65.26-3.43-96.41-6.18-12.41-1.09-23.57-6.68-34.2-13.14-7.34-4.46-14.44-9.85-23.51-10.04-15.19-.33-19.94-10.1-20.68-22.94-1.21-21.01,.13-41.84,4.98-62.45,1.99-8.45,6.56-6.87,11.79-4.37,49.98,23.92,101.94,34.17,157.57,26.88,26.47-3.47,53.96-5.78,77.69,12.54,22.57,17.43,19.74,52.41-5.39,66.34-23.46,13-48.79,14.48-71.85,13.35Z"/><path class="cls-4" d="M943.4,2310.48c-20.71-.5-54.55-4.3-77.87-36.24-9.41-12.89-8.07-28.47,2.73-39.89,20.78-21.98,48.81-20.35,75-26.9,52.92-13.24,103.32,8.07,155.1,6.99,7.43-.16,11.48,4.12,9.74,12.55-4.26,20.64-2.57,42.68-15,61.39-4.6,6.92-11.02,10.3-18.94,11.54-38.47,6.01-77.07,10.6-130.76,10.56Z"/><path class="cls-1" d="M1159.67,1259.83c19.2,.9,38.23,2.85,57.3,5.63,24.63,3.6,48.9-.97,72.83-7.39,29.16-7.83,59.41-3.91,88.99-7.76,83.93-10.91,168.28-15.71,252.89-16.21,4.65,11.34,9.45,22.62,13.9,34.03,2.14,5.5,1.49,10.4-5.9,10.35-88.4-.65-175.3,21.01-263.79,18.06-72-2.4-143.86,2.21-215.79,2.99-13.36,.14-18.49-3-11.34-16.34,4.06-7.57,7.31-15.56,10.93-23.37Z"/><path class="cls-3" d="M1085.33,2126.74c-8.96,0-17.92,.08-26.88-.02-11.12-.12-7.8-8.39-8-14.54-1.66-52.31,15.3-101.35,25.16-151.79,14.37-73.56,47.6-136.97,90.69-196.57,3.93-5.44,7.22-5.58,12.18-1.46,10.22,8.5,20.77,16.61,31.18,24.87,3.01,2.38,6.45,5.28,2.44,8.87-28.42,25.43-37.23,62.3-55.53,93.63-41.59,71.22-53.93,149.26-58.1,229.63-.41,7.83-1.65,8.73-13.14,7.39Z"/><path class="cls-3" d="M1590.37,2025.5c1.77,23.05-.54,52.41-9.82,80.97-2.14,6.59-4.29,16.25-13.37,10.83-9.39-5.61-27.64,2.26-26.59-21.15,3.52-78.14,12.31-157.35-27.11-230.58-3.79-7.03-1.83-9.37,5.59-12.86,17.57-8.26,24.76-2,33.57,14.08,35.5,64.77,37.46,69.17,37.72,158.71Z"/><path class="cls-3" d="M1948.74,1686.23c-20.02-.31-34.62-13.8-34.35-33.65,.23-17.55,2.23-35.08,3.43-52.62,.24-3.51,2.36-5.08,5.52-6.12,24.96-8.24,50.99-9.75,76.8-10.01,19.11-.19,40.65,46.89,28.08,60.84-21.11,23.41-46.47,40.3-79.47,41.56Z"/><path class="cls-3" d="M861.23,1632.05c-33.02,.01-29.63,.42-25.71-32.15,4.53-37.63,34.63-27.4,55.04-35.44,7.27-2.86,15.91-2.1,23.37-4.63,14.13-4.8,16.03,2.76,17.6,14.08,6.16,44.37-28.38,61.96-70.3,58.14Z"/><path class="cls-1" d="M1983.5,1535.61c16.03,.08,29.33,.64,42.45-2.48,4.69-1.12,11.26-3.38,13.1,2.7,1.97,6.52-4.38,9.82-9.58,11.95-11.75,4.79-24.33,3.02-36.52,3.35-28.32,.77-55.96,6.29-83.78,10.62-5.12,.8-10.52,.68-11.15-6.43-.66-7.45,5-6.71,9.97-7.82,25.83-5.74,51.27-13.83,75.51-11.9Z"/><path class="cls-1" d="M850.94,1511.81c19.71,7.49,40.18-5.84,61.38-2.5,3.79,.6,8.55-.82,9.85,4.49,1.23,5.01-1.82,9.16-5.82,10.46-24.9,8.13-50.25,14.8-76.72,13.39-8.69-.46-7.9-8.71-7.4-14.93,.87-10.79,9.36-10.32,18.7-10.92Z"/><path class="cls-1" d="M1066.01,2158.88c14.19,4.88,32.56-6.3,43.48,11.89,1.4,2.33,5.89,3.07,4.36,6.85-1.33,3.27-4.52,5.21-8.06,4.92-26.14-2.15-52.26-4.4-78.37-6.85-3.67-.34-5.93-3.07-5.55-7.05,.46-4.77,3.88-7.18,8.06-7.54,11.92-1.01,23.88-1.5,36.08-2.21Z"/><path class="cls-1" d="M1582.11,2181.75c-24.13-1.82-40.53-18.19-60.35-27.01-2.78-1.23-3.45-4.78-2.3-7.96,1.33-3.67,4.54-5.43,7.87-4.75,18.91,3.87,38.69,5.5,54.09,19.29,1.47,1.32,3.04,2.57,4.71,3.63,4.09,2.61,11.9,2.26,9.83,9.97-1.99,7.42-9.32,5.93-13.85,6.84Z"/><path class="cls-1" d="M1699.94,1269.97c-5.95,3.83-10.16,21.76-18.95,2.56-1.99-4.35-6.64-11.91,.02-13.62,7.55-1.93,17.43-6.17,24.46,3-4.81,.65-5.9,3.86-5.53,8.06Z"/><path class="cls-3" d="M1699.94,1269.97c-.36-4.2,.72-7.41,5.53-8.06,.38,4.21-2.41,6.25-5.53,8.06Z"/><path class="cls-2" d="M1485.02,865.36c-31.17,7.52-61.12-11.65-91.73-23.62-32.27-12.63-30.92-68.78,.13-93.57,26.68-21.31,79.07-23.1,109.66-3.27,14.5,9.39,28.77,19.21,42.53,29.65,20.9,15.87,13.74,38.33,10.12,57.98-3.62,19.61-18.8,30.81-39.15,32.71-8.9,.83-17.95,.14-31.55,.14Zm-.72-32.64c10.2,0,17.2-.21,24.19,.06,6.97,.27,12.74-1.65,15.51-8.4,3.1-7.57,5.32-17.99-.31-22.66-20.87-17.32-40.09-38.95-71.07-37.4-19.43,.97-39.74,.58-47.26,24.3-2.65,8.35-7.08,19.75,4.1,23.54,25.45,8.63,48.87,25.93,74.84,20.57Z"/><path class="cls-1" d="M1204.65,774.03c18.07-3.13,32.76,1.06,45.19,13.87,13.9,14.32,11.77,33.67-6.72,40.06-28.97,10.02-59.2,15-89.93,15.69-5.67,.13-13.72,.03-14.62-7.48-1.53-12.83-6.56-27.39,4.9-37.8,17.36-15.77,35.73-30.83,61.17-24.33Zm-20.25,38.04c-.79-1.56-1.67-6.37-4.15-7.43-3.47-1.48-.73,4.38-3.3,5.31-2.33,.85-4.88,2.11-7.15,1.81-2.85-.38-3.29-3.31-4.14-5.98-1.03-3.23,5.54-5.69,1.7-6.68-3.02-.78-8.14,2.56-10.85,5.45-5.36,5.69-5.44,12.62-.95,19.14,4.28,6.21,10.58,8.09,17.52,6.06,7.49-2.19,11.27-7.74,11.32-17.68Z"/><path class="cls-1" d="M1484.29,832.72c-25.97,5.36-49.38-11.94-74.84-20.57-11.18-3.79-6.75-15.18-4.1-23.54,7.52-23.72,27.83-23.33,47.26-24.3,30.98-1.55,50.2,20.08,71.07,37.4,5.63,4.67,3.41,15.09,.31,22.66-2.77,6.75-8.54,8.67-15.51,8.4-6.99-.27-13.99-.06-24.19-.06Zm20.19-29.96c-.39-1.35-.91-3.13-1.44-4.91-1.1,1.47-2.11,3-3.31,4.39-2.32,2.69-5.11,4.24-8.75,2.77-2.97-1.2-4.95-3.24-5.2-6.61-.28-3.72,1.25-6.43,4.61-8.01,1.32-.62,2.74-1,4.12-1.49-1.78-.78-3.57-2.27-5.34-2.23-9.94,.19-16.64,4.97-17.32,15.25-.72,10.84,5.61,17.27,15.95,17.52,9.9,.24,15.67-5.97,16.68-16.66Z"/><path class="cls-2" d="M1184.39,812.07c-.06,9.95-3.83,15.49-11.32,17.68-6.94,2.03-13.24,.15-17.52-6.06-4.49-6.52-4.41-13.45,.95-19.14,2.72-2.89,7.84-6.23,10.85-5.45,3.85,1-2.73,3.46-1.7,6.68,.85,2.67,1.29,5.61,4.14,5.98,2.27,.3,4.82-.97,7.15-1.81,2.56-.93-.17-6.8,3.3-5.31,2.48,1.06,3.36,5.87,4.15,7.43Z"/><path class="cls-2" d="M1504.48,802.76c-1,10.69-6.78,16.9-16.68,16.66-10.33-.25-16.67-6.68-15.95-17.52,.68-10.28,7.38-15.06,17.32-15.25,1.76-.03,3.56,1.45,5.34,2.23-1.38,.49-2.8,.87-4.12,1.49-3.36,1.58-4.89,4.29-4.61,8.01,.25,3.38,2.24,5.42,5.2,6.61,3.64,1.47,6.42-.08,8.75-2.77,1.19-1.38,2.21-2.92,3.31-4.39,.52,1.78,1.04,3.56,1.44,4.91Z"/></svg>